<svg width="140" height="43" viewBox="0 0 140 43" fill="none" xmlns="http://www.w3.org/2000/svg">
<path d="M4.35 30C2.99 30 2.31 29.32 2.31 27.96V10.89C2.31 9.53 2.99 8.85 4.35 8.85H15.06C16.1 8.85 16.62 9.35 16.62 10.35C16.62 11.39 16.1 11.91 15.06 11.91H6V17.73H14.4C15.44 17.73 15.96 18.24 15.96 19.26C15.96 20.28 15.44 20.79 14.4 20.79H6V26.94H15.06C16.1 26.94 16.62 27.45 16.62 28.47C16.62 29.49 16.1 30 15.06 30H4.35ZM21.7704 30.24C20.5304 30.24 19.9104 29.6 19.9104 28.32V16.98C19.9104 15.72 20.5204 15.09 21.7404 15.09C22.9604 15.09 23.5704 15.72 23.5704 16.98V17.58C24.0104 16.78 24.6204 16.16 25.4004 15.72C26.1804 15.26 27.0804 15.03 28.1004 15.03C30.3004 15.03 31.7404 15.99 32.4204 17.91C32.8804 17.01 33.5404 16.31 34.4004 15.81C35.2604 15.29 36.2404 15.03 37.3404 15.03C40.6404 15.03 42.2904 17.04 42.2904 21.06V28.32C42.2904 29.6 41.6604 30.24 40.4004 30.24C39.1604 30.24 38.5404 29.6 38.5404 28.32V21.21C38.5404 20.09 38.3504 19.27 37.9704 18.75C37.6104 18.23 36.9904 17.97 36.1104 17.97C35.1304 17.97 34.3604 18.32 33.8004 19.02C33.2404 19.7 32.9604 20.65 32.9604 21.87V28.32C32.9604 29.6 32.3404 30.24 31.1004 30.24C29.8404 30.24 29.2104 29.6 29.2104 28.32V21.21C29.2104 20.09 29.0204 19.27 28.6404 18.75C28.2804 18.23 27.6704 17.97 26.8104 17.97C25.8304 17.97 25.0604 18.32 24.5004 19.02C23.9404 19.7 23.6604 20.65 23.6604 21.87V28.32C23.6604 29.6 23.0304 30.24 21.7704 30.24ZM50.989 30.3C49.929 30.3 48.979 30.1 48.139 29.7C47.319 29.28 46.669 28.72 46.189 28.02C45.729 27.32 45.499 26.53 45.499 25.65C45.499 24.57 45.779 23.72 46.339 23.1C46.899 22.46 47.809 22 49.069 21.72C50.329 21.44 52.019 21.3 54.139 21.3H55.189V20.67C55.189 19.67 54.969 18.95 54.529 18.51C54.089 18.07 53.349 17.85 52.309 17.85C51.729 17.85 51.099 17.92 50.419 18.06C49.759 18.2 49.059 18.44 48.319 18.78C47.839 19 47.439 19.03 47.119 18.87C46.799 18.69 46.579 18.42 46.459 18.06C46.359 17.68 46.379 17.3 46.519 16.92C46.679 16.54 46.989 16.26 47.449 16.08C48.369 15.7 49.249 15.43 50.089 15.27C50.949 15.11 51.729 15.03 52.429 15.03C54.569 15.03 56.159 15.53 57.199 16.53C58.239 17.51 58.759 19.04 58.759 21.12V28.32C58.759 29.6 58.179 30.24 57.019 30.24C55.839 30.24 55.249 29.6 55.249 28.32V27.66C54.909 28.48 54.369 29.13 53.629 29.61C52.889 30.07 52.009 30.3 50.989 30.3ZM51.769 27.72C52.749 27.72 53.559 27.38 54.199 26.7C54.859 26.02 55.189 25.16 55.189 24.12V23.46H54.169C52.289 23.46 50.979 23.61 50.239 23.91C49.519 24.19 49.159 24.71 49.159 25.47C49.159 26.13 49.389 26.67 49.849 27.09C50.309 27.51 50.949 27.72 51.769 27.72ZM63.9452 23.46C63.5052 23.46 63.1352 23.32 62.8352 23.04C62.5552 22.74 62.4152 22.38 62.4152 21.96C62.4152 21.52 62.5552 21.16 62.8352 20.88C63.1352 20.6 63.5052 20.46 63.9452 20.46H70.3352C70.7552 20.46 71.1052 20.6 71.3852 20.88C71.6852 21.16 71.8352 21.52 71.8352 21.96C71.8352 22.38 71.6852 22.74 71.3852 23.04C71.1052 23.32 70.7552 23.46 70.3352 23.46H63.9452ZM74.1534 30.21C73.5934 30.23 73.1534 30.08 72.8334 29.76C72.5134 29.44 72.3534 29.03 72.3534 28.53C72.3534 28.15 72.4734 27.82 72.7134 27.54C72.9334 27.24 73.2634 27.08 73.7034 27.06L74.6034 27C76.3834 26.88 77.2734 25.9 77.2734 24.06V10.56C77.2734 9.26 77.9134 8.61 79.1934 8.61C80.4734 8.61 81.1134 9.26 81.1134 10.56V24.03C81.1134 25.91 80.6134 27.37 79.6134 28.41C78.6134 29.45 77.1334 30.03 75.1734 30.15L74.1534 30.21ZM92.0189 30.3C90.4989 30.3 89.1789 29.99 88.0589 29.37C86.9389 28.75 86.0689 27.87 85.4489 26.73C84.8289 25.57 84.5189 24.21 84.5189 22.65C84.5189 21.09 84.8289 19.74 85.4489 18.6C86.0689 17.46 86.9389 16.58 88.0589 15.96C89.1789 15.34 90.4989 15.03 92.0189 15.03C93.5389 15.03 94.8589 15.34 95.9789 15.96C97.0989 16.58 97.9689 17.46 98.5889 18.6C99.2089 19.74 99.5189 21.09 99.5189 22.65C99.5189 24.21 99.2089 25.57 98.5889 26.73C97.9689 27.87 97.0989 28.75 95.9789 29.37C94.8589 29.99 93.5389 30.3 92.0189 30.3ZM92.0189 27.45C93.1389 27.45 94.0389 27.05 94.7189 26.25C95.3989 25.43 95.7389 24.23 95.7389 22.65C95.7389 21.05 95.3989 19.86 94.7189 19.08C94.0389 18.28 93.1389 17.88 92.0189 17.88C90.8989 17.88 89.9989 18.28 89.3189 19.08C88.6389 19.86 88.2989 21.05 88.2989 22.65C88.2989 24.23 88.6389 25.43 89.3189 26.25C89.9989 27.05 90.8989 27.45 92.0189 27.45ZM104.474 30.24C103.234 30.24 102.614 29.6 102.614 28.32V10.5C102.614 9.24 103.234 8.61 104.474 8.61C105.734 8.61 106.364 9.24 106.364 10.5V17.46C106.864 16.66 107.534 16.06 108.374 15.66C109.214 15.24 110.144 15.03 111.164 15.03C114.624 15.03 116.354 17.04 116.354 21.06V28.32C116.354 29.6 115.734 30.24 114.494 30.24C113.234 30.24 112.604 29.6 112.604 28.32V21.24C112.604 20.1 112.384 19.27 111.944 18.75C111.524 18.23 110.864 17.97 109.964 17.97C108.864 17.97 107.984 18.32 107.324 19.02C106.684 19.7 106.364 20.61 106.364 21.75V28.32C106.364 29.6 105.734 30.24 104.474 30.24ZM122.023 30.24C120.783 30.24 120.163 29.6 120.163 28.32V16.98C120.163 15.72 120.773 15.09 121.993 15.09C123.213 15.09 123.823 15.72 123.823 16.98V17.61C124.323 16.77 124.993 16.13 125.833 15.69C126.693 15.25 127.653 15.03 128.713 15.03C132.173 15.03 133.903 17.04 133.903 21.06V28.32C133.903 29.6 133.283 30.24 132.043 30.24C130.783 30.24 130.153 29.6 130.153 28.32V21.24C130.153 20.1 129.933 19.27 129.493 18.75C129.073 18.23 128.413 17.97 127.513 17.97C126.413 17.97 125.533 18.32 124.873 19.02C124.233 19.7 123.913 20.61 123.913 21.75V28.32C123.913 29.6 123.283 30.24 122.023 30.24Z" fill="white"/>
<path fill-rule="evenodd" clip-rule="evenodd" d="M86.4269 37.2638C80.0757 40.6552 70.87 42.4646 62.944 42.4646C51.8305 42.4646 41.8255 39.4868 34.2563 34.5343C33.6617 34.1447 34.1945 33.614 34.9081 33.9173C43.0767 37.3604 53.1769 39.4317 63.6101 39.4317C70.6464 39.4317 78.3868 38.3771 85.504 36.1886C86.5791 35.8577 87.4783 36.6986 86.4269 37.2638Z" fill="#FF9900"/>
<path fill-rule="evenodd" clip-rule="evenodd" d="M89.0674 35.0754C88.2586 34.324 83.7008 34.7203 81.6551 34.8961C81.0319 34.9513 80.9368 34.5583 81.4981 34.2758C85.1281 32.425 91.0845 32.9592 91.779 33.5796C92.4736 34.2034 91.5983 38.5287 88.1871 40.5931C87.6638 40.9102 87.1642 40.7413 87.3974 40.3208C88.1634 38.9354 89.8808 35.8301 89.0674 35.0754Z" fill="#FF9900"/>
</svg>
